# xmcd
#
# Track frame offsets:
#	150
#	11565
#	22432
#	36738
#	48088
#	62040
#	73712
#	88710
#	99393
#	110014
#	125015
#	136807
#	148943
#	162718
#	175605
#	187190
#	199243
#	208656
#	218018
#	231044
#	243134
#	255431
#	268319
#	281559
#	291384
#
# Disc length: 4083 seconds
# Revision: 1
# Processed by: cddbd v1.5.2PL0 Copyright (c) Steve Scherf et al.
# Submitted via: dBpowerAMP V12.0
#
DISCID=8f0ff119
DTITLE=Don Gibson - The Best Of The Hickory Records Years (1970-1978)
DYEAR=1970
DGENRE=Country
TTITLE0=Games People Play
TTITLE1=Don't Take All Your Loving
TTITLE2=Pretending Everyday
TTITLE3=A Perfect Mountain
TTITLE4=Guess Away The Blues
TTITLE5=Having Second Thoughts
TTITLE6=(I Heard That) Lonesome Whistle
TTITLE7=Country Green
TTITLE8=Far Far Away
TTITLE9=Woman (Sensuous Woman)
TTITLE10=Is This The Best I'm Gonna Feel
TTITLE11=If You're Goin' Girl
TTITLE12=Touch The Morning
TTITLE13=Snap Your Fingers
TTITLE14=One Day At A Time
TTITLE15=Bring Back Your Love To Me
TTITLE16=I'll Sing For You
TTITLE17=There She Goes (I Wish Her Well)
TTITLE18=What's Happened To Me
TTITLE19=Praying Hands
TTITLE20=I'm All Wrapped Up In You
TTITLE21=If You Ever Get To Houston (Look Me Down)
TTITLE22=Starting All Over Again
TTITLE23=The Fool
TTITLE24=Any Day Now
EXTD=
EXTT0=
EXTT1=
EXTT2=
EXTT3=
EXTT4=
EXTT5=
EXTT6=
EXTT7=
EXTT8=
EXTT9=
EXTT10=
EXTT11=
EXTT12=
EXTT13=
EXTT14=
EXTT15=
EXTT16=
EXTT17=
EXTT18=
EXTT19=
EXTT20=
EXTT21=
EXTT22=
EXTT23=
EXTT24=
PLAYORDER=
